<svg width="125" height="24" viewBox="0 0 125 24" fill="none" xmlns="http://www.w3.org/2000/svg">
<g clip-path="url(#clip0_766_248)">
<path fill-rule="evenodd" clip-rule="evenodd" d="M14.6667 7.75757C14.6667 8.6703 13.2795 9.46523 11.23 9.8788C13.2795 10.2923 14.6667 11.0873 14.6667 12C14.6667 12.9127 13.2795 13.7077 11.23 14.1212C13.2795 14.5348 14.6667 15.3297 14.6667 16.2424C14.6667 17.5813 11.6819 18.6667 8 18.6667C4.3181 18.6667 1.33333 17.5813 1.33333 16.2424C1.33333 15.3297 2.72048 14.5348 4.77 14.1212C2.72048 13.7077 1.33333 12.9127 1.33333 12C1.33333 11.0873 2.72048 10.2923 4.77 9.8788C2.72048 9.46523 1.33333 8.6703 1.33333 7.75757C1.33333 6.4187 4.3181 5.33333 8 5.33333C11.6819 5.33333 14.6667 6.4187 14.6667 7.75757Z" fill="white"/>
</g>
<path d="M28.192 18.68C27.328 18.68 26.59 18.578 25.978 18.374C25.378 18.158 24.874 17.888 24.466 17.564C24.07 17.228 23.752 16.88 23.512 16.52C23.272 16.148 23.092 15.8 22.972 15.476C22.864 15.14 22.792 14.87 22.756 14.666C22.732 14.45 22.72 14.342 22.72 14.342H25.528C25.528 14.342 25.552 14.444 25.6 14.648C25.66 14.852 25.78 15.092 25.96 15.368C26.14 15.632 26.416 15.866 26.788 16.07C27.16 16.262 27.664 16.358 28.3 16.358C29.08 16.358 29.656 16.196 30.028 15.872C30.4 15.536 30.586 15.14 30.586 14.684C30.586 14.276 30.442 13.952 30.154 13.712C29.878 13.472 29.446 13.292 28.858 13.172L27.076 12.83C26.356 12.698 25.684 12.488 25.06 12.2C24.448 11.912 23.95 11.516 23.566 11.012C23.182 10.496 22.99 9.836 22.99 9.032C22.99 8.216 23.194 7.508 23.602 6.908C24.01 6.296 24.58 5.828 25.312 5.504C26.056 5.168 26.926 5 27.922 5C28.858 5 29.632 5.138 30.244 5.414C30.868 5.678 31.36 6.008 31.72 6.404C32.092 6.788 32.362 7.178 32.53 7.574C32.71 7.97 32.824 8.3 32.872 8.564C32.932 8.828 32.962 8.96 32.962 8.96H30.226C30.226 8.96 30.202 8.876 30.154 8.708C30.118 8.54 30.022 8.348 29.866 8.132C29.71 7.916 29.47 7.724 29.146 7.556C28.834 7.388 28.402 7.304 27.85 7.304C27.094 7.304 26.548 7.472 26.212 7.808C25.876 8.132 25.708 8.486 25.708 8.87C25.708 9.266 25.876 9.572 26.212 9.788C26.548 10.004 26.986 10.166 27.526 10.274L29.416 10.652C30.136 10.784 30.796 11.006 31.396 11.318C31.996 11.63 32.47 12.05 32.818 12.578C33.178 13.094 33.358 13.736 33.358 14.504C33.358 15.296 33.16 16.01 32.764 16.646C32.368 17.27 31.786 17.768 31.018 18.14C30.25 18.5 29.308 18.68 28.192 18.68ZM39.4783 18.68C38.7343 18.68 38.1403 18.572 37.6963 18.356C37.2523 18.128 36.9163 17.846 36.6883 17.51C36.4603 17.162 36.3103 16.796 36.2383 16.412C36.1663 16.028 36.1303 15.674 36.1303 15.35V11.138H34.5103V8.96H36.1303V6.602H38.8663V8.96H40.9003V11.138H38.8663V15.278C38.8663 15.674 38.9683 15.98 39.1723 16.196C39.3883 16.412 39.7423 16.52 40.2343 16.52C40.4503 16.52 40.6483 16.502 40.8283 16.466C41.0083 16.43 41.0983 16.412 41.0983 16.412V18.518C41.0983 18.518 40.9363 18.542 40.6123 18.59C40.2883 18.65 39.9103 18.68 39.4783 18.68ZM46.8522 8.78C47.4642 8.78 47.9682 8.882 48.3642 9.086C48.7602 9.278 49.0602 9.488 49.2642 9.716C49.4802 9.944 49.6122 10.1 49.6602 10.184H49.8042V8.96H52.5402V18.5H49.8042V17.276H49.6602C49.6122 17.36 49.4802 17.516 49.2642 17.744C49.0602 17.972 48.7602 18.188 48.3642 18.392C47.9682 18.584 47.4642 18.68 46.8522 18.68C46.1442 18.68 45.5262 18.542 44.9982 18.266C44.4822 17.978 44.0502 17.6 43.7022 17.132C43.3542 16.652 43.0902 16.118 42.9102 15.53C42.7422 14.942 42.6582 14.342 42.6582 13.73C42.6582 13.118 42.7422 12.518 42.9102 11.93C43.0902 11.342 43.3542 10.814 43.7022 10.346C44.0502 9.866 44.4822 9.488 44.9982 9.212C45.5262 8.924 46.1442 8.78 46.8522 8.78ZM47.6442 10.994C47.1522 10.994 46.7382 11.132 46.4022 11.408C46.0782 11.672 45.8322 12.014 45.6642 12.434C45.5082 12.854 45.4302 13.286 45.4302 13.73C45.4302 14.174 45.5082 14.606 45.6642 15.026C45.8322 15.446 46.0782 15.794 46.4022 16.07C46.7382 16.334 47.1522 16.466 47.6442 16.466C48.1362 16.466 48.5442 16.334 48.8682 16.07C49.2042 15.794 49.4502 15.446 49.6062 15.026C49.7742 14.606 49.8582 14.174 49.8582 13.73C49.8582 13.286 49.7742 12.854 49.6062 12.434C49.4502 12.014 49.2042 11.672 48.8682 11.408C48.5442 11.132 48.1362 10.994 47.6442 10.994ZM54.6846 18.5V8.96H57.4206V10.256H57.5106C57.7146 9.908 58.0206 9.578 58.4286 9.266C58.8366 8.942 59.3946 8.78 60.1026 8.78C60.8226 8.78 61.3986 8.948 61.8306 9.284C62.2746 9.62 62.5986 10.034 62.8026 10.526H62.8386C62.9946 10.25 63.1986 9.98 63.4506 9.716C63.7146 9.44 64.0386 9.218 64.4226 9.05C64.8186 8.87 65.2806 8.78 65.8086 8.78C66.4686 8.78 67.0146 8.93 67.4466 9.23C67.8786 9.53 68.1966 9.926 68.4006 10.418C68.6166 10.898 68.7246 11.414 68.7246 11.966V18.5H65.9886V12.65C65.9886 12.182 65.8686 11.798 65.6286 11.498C65.4006 11.186 65.0526 11.03 64.5846 11.03C64.2246 11.03 63.9306 11.12 63.7026 11.3C63.4866 11.48 63.3246 11.714 63.2166 12.002C63.1206 12.278 63.0726 12.566 63.0726 12.866V18.5H60.3366V12.65C60.3366 12.182 60.2166 11.798 59.9766 11.498C59.7486 11.186 59.4006 11.03 58.9326 11.03C58.5726 11.03 58.2786 11.12 58.0506 11.3C57.8346 11.48 57.6726 11.714 57.5646 12.002C57.4686 12.278 57.4206 12.566 57.4206 12.866V18.5H54.6846ZM71.0013 22.01V8.96H73.7373V10.184H73.8633C73.9233 10.1 74.0553 9.944 74.2593 9.716C74.4753 9.488 74.7813 9.278 75.1773 9.086C75.5733 8.882 76.0773 8.78 76.6893 8.78C77.3973 8.78 78.0093 8.924 78.5253 9.212C79.0533 9.488 79.4913 9.866 79.8393 10.346C80.1873 10.814 80.4453 11.342 80.6133 11.93C80.7933 12.518 80.8833 13.118 80.8833 13.73C80.8833 14.342 80.7933 14.942 80.6133 15.53C80.4453 16.118 80.1873 16.652 79.8393 17.132C79.4913 17.6 79.0533 17.978 78.5253 18.266C78.0093 18.542 77.3973 18.68 76.6893 18.68C76.0773 18.68 75.5733 18.584 75.1773 18.392C74.7813 18.188 74.4753 17.972 74.2593 17.744C74.0553 17.516 73.9233 17.36 73.8633 17.276H73.7373V22.01H71.0013ZM73.6833 13.73C73.6833 14.174 73.7613 14.606 73.9173 15.026C74.0853 15.446 74.3313 15.794 74.6553 16.07C74.9913 16.334 75.4053 16.466 75.8973 16.466C76.3893 16.466 76.7973 16.334 77.1213 16.07C77.4573 15.794 77.7033 15.446 77.8593 15.026C78.0273 14.606 78.1113 14.174 78.1113 13.73C78.1113 13.286 78.0273 12.854 77.8593 12.434C77.7033 12.014 77.4573 11.672 77.1213 11.408C76.7973 11.132 76.3893 10.994 75.8973 10.994C75.4053 10.994 74.9913 11.132 74.6553 11.408C74.3313 11.672 74.0853 12.014 73.9173 12.434C73.7613 12.854 73.6833 13.286 73.6833 13.73ZM82.9193 18.5V5.18H88.3193C89.3033 5.18 90.1433 5.354 90.8393 5.702C91.5473 6.05 92.0873 6.53 92.4593 7.142C92.8433 7.754 93.0353 8.462 93.0353 9.266C93.0353 10.142 92.8133 10.91 92.3693 11.57C91.9253 12.218 91.2953 12.692 90.4793 12.992L93.3773 18.5H90.2993L87.6533 13.37H85.6913V18.5H82.9193ZM88.2833 7.574H85.6913V11.102H88.2833C88.8953 11.102 89.3753 10.934 89.7233 10.598C90.0713 10.262 90.2453 9.848 90.2453 9.356C90.2453 8.852 90.0713 8.432 89.7233 8.096C89.3753 7.748 88.8953 7.574 88.2833 7.574ZM97.5218 18.68C96.8498 18.68 96.2918 18.536 95.8478 18.248C95.4158 17.96 95.0918 17.576 94.8758 17.096C94.6598 16.604 94.5518 16.052 94.5518 15.44V8.96H97.2698V14.9C97.2698 15.356 97.3898 15.728 97.6298 16.016C97.8698 16.292 98.2238 16.43 98.6918 16.43C99.0878 16.43 99.3998 16.334 99.6278 16.142C99.8678 15.95 100.042 15.704 100.15 15.404C100.258 15.104 100.312 14.786 100.312 14.45V8.96H103.048V18.5H100.312V17.15H100.204C99.9998 17.522 99.6818 17.87 99.2498 18.194C98.8298 18.518 98.2538 18.68 97.5218 18.68ZM109.148 18.68C108.356 18.68 107.702 18.572 107.186 18.356C106.67 18.14 106.256 17.876 105.944 17.564C105.644 17.24 105.416 16.922 105.26 16.61C105.116 16.286 105.02 16.016 104.972 15.8C104.936 15.584 104.918 15.476 104.918 15.476H107.456C107.456 15.476 107.474 15.536 107.51 15.656C107.546 15.776 107.624 15.914 107.744 16.07C107.876 16.226 108.062 16.364 108.302 16.484C108.542 16.604 108.866 16.664 109.274 16.664C109.778 16.664 110.12 16.562 110.3 16.358C110.492 16.154 110.588 15.95 110.588 15.746C110.588 15.314 110.234 15.026 109.526 14.882L108.23 14.63C107.678 14.522 107.156 14.366 106.664 14.162C106.184 13.946 105.794 13.652 105.494 13.28C105.206 12.896 105.062 12.404 105.062 11.804C105.062 11.228 105.212 10.712 105.512 10.256C105.812 9.8 106.238 9.44 106.79 9.176C107.354 8.912 108.026 8.78 108.806 8.78C109.538 8.78 110.144 8.882 110.624 9.086C111.116 9.278 111.506 9.524 111.794 9.824C112.082 10.112 112.298 10.406 112.442 10.706C112.586 10.994 112.676 11.24 112.712 11.444C112.76 11.636 112.784 11.732 112.784 11.732H110.336C110.336 11.732 110.3 11.654 110.228 11.498C110.156 11.33 110.006 11.168 109.778 11.012C109.562 10.844 109.226 10.76 108.77 10.76C108.302 10.76 107.978 10.856 107.798 11.048C107.618 11.228 107.528 11.42 107.528 11.624C107.528 11.864 107.63 12.044 107.834 12.164C108.05 12.284 108.326 12.38 108.662 12.452L109.904 12.704C110.816 12.884 111.566 13.202 112.154 13.658C112.742 14.102 113.036 14.75 113.036 15.602C113.036 16.178 112.886 16.7 112.586 17.168C112.286 17.636 111.848 18.008 111.272 18.284C110.696 18.548 109.988 18.68 109.148 18.68ZM114.876 18.5V4.82H117.612V10.328H117.702C117.81 10.136 117.966 9.92 118.17 9.68C118.386 9.44 118.668 9.23 119.016 9.05C119.376 8.87 119.832 8.78 120.384 8.78C121.128 8.78 121.734 8.954 122.202 9.302C122.67 9.638 123.012 10.076 123.228 10.616C123.444 11.144 123.552 11.702 123.552 12.29V18.5H120.816V12.758C120.816 12.302 120.69 11.9 120.438 11.552C120.198 11.204 119.808 11.03 119.268 11.03C118.86 11.03 118.536 11.126 118.296 11.318C118.056 11.51 117.882 11.756 117.774 12.056C117.666 12.356 117.612 12.674 117.612 13.01V18.5H114.876Z" fill="white"/>
<defs>
<clipPath id="clip0_766_248">
<rect width="16" height="16" fill="white" transform="translate(0 4)"/>
</clipPath>
</defs>
</svg>
