<svg width="125" height="24" viewBox="0 0 125 24" fill="none" xmlns="http://www.w3.org/2000/svg">
<g clip-path="url(#clip0_766_248)">
<path fill-rule="evenodd" clip-rule="evenodd" d="M14.6667 7.75757C14.6667 8.6703 13.2795 9.46523 11.23 9.8788C13.2795 10.2923 14.6667 11.0873 14.6667 12C14.6667 12.9127 13.2795 13.7077 11.23 14.1212C13.2795 14.5348 14.6667 15.3297 14.6667 16.2424C14.6667 17.5813 11.6819 18.6667 8 18.6667C4.3181 18.6667 1.33333 17.5813 1.33333 16.2424C1.33333 15.3297 2.72048 14.5348 4.77 14.1212C2.72048 13.7077 1.33333 12.9127 1.33333 12C1.33333 11.0873 2.72048 10.2923 4.77 9.8788C2.72048 9.46523 1.33333 8.6703 1.33333 7.75757C1.33333 6.4187 4.3181 5.33333 8 5.33333C11.6819 5.33333 14.6667 6.4187 14.6667 7.75757Z" fill="white"/>
</g>
<path d="M38.192 18.68C37.328 18.68 36.59 18.578 35.978 18.374C35.378 18.158 34.874 17.888 34.466 17.564C34.07 17.228 33.752 16.88 33.512 16.52C33.272 16.148 33.092 15.8 32.972 15.476C32.864 15.14 32.792 14.87 32.756 14.666C32.732 14.45 32.72 14.342 32.72 14.342H35.528C35.528 14.342 35.552 14.444 35.6 14.648C35.66 14.852 35.78 15.092 35.96 15.368C36.14 15.632 36.416 15.866 36.788 16.07C37.16 16.262 37.664 16.358 38.3 16.358C39.08 16.358 39.656 16.196 40.028 15.872C40.4 15.536 40.586 15.14 40.586 14.684C40.586 14.276 40.442 13.952 40.154 13.712C39.878 13.472 39.446 13.292 38.858 13.172L37.076 12.83C36.356 12.698 35.684 12.488 35.06 12.2C34.448 11.912 33.95 11.516 33.566 11.012C33.182 10.496 32.99 9.836 32.99 9.032C32.99 8.216 33.194 7.508 33.602 6.908C34.01 6.296 34.58 5.828 35.312 5.504C36.056 5.168 36.926 5 37.922 5C38.858 5 39.632 5.138 40.244 5.414C40.868 5.678 41.36 6.008 41.72 6.404C42.092 6.788 42.362 7.178 42.53 7.574C42.71 7.97 42.824 8.3 42.872 8.564C42.932 8.828 42.962 8.96 42.962 8.96H40.226C40.226 8.96 40.202 8.876 40.154 8.708C40.118 8.54 40.022 8.348 39.866 8.132C39.71 7.916 39.47 7.724 39.146 7.556C38.834 7.388 38.402 7.304 37.85 7.304C37.094 7.304 36.548 7.472 36.212 7.808C35.876 8.132 35.708 8.486 35.708 8.87C35.708 9.266 35.876 9.572 36.212 9.788C36.548 10.004 36.986 10.166 37.526 10.274L39.416 10.652C40.136 10.784 40.796 11.006 41.396 11.318C41.996 11.63 42.47 12.05 42.818 12.578C43.178 13.094 43.358 13.736 43.358 14.504C43.358 15.296 43.16 16.01 42.764 16.646C42.368 17.27 41.786 17.768 41.018 18.14C40.25 18.5 39.308 18.68 38.192 18.68ZM49.4783 18.68C48.7343 18.68 48.1403 18.572 47.6963 18.356C47.2523 18.128 46.9163 17.846 46.6883 17.51C46.4603 17.162 46.3103 16.796 46.2383 16.412C46.1663 16.028 46.1303 15.674 46.1303 15.35V11.138H44.5103V8.96H46.1303V6.602H48.8663V8.96H50.9003V11.138H48.8663V15.278C48.8663 15.674 48.9683 15.98 49.1723 16.196C49.3883 16.412 49.7423 16.52 50.2343 16.52C50.4503 16.52 50.6483 16.502 50.8283 16.466C51.0083 16.43 51.0983 16.412 51.0983 16.412V18.518C51.0983 18.518 50.9363 18.542 50.6123 18.59C50.2883 18.65 49.9103 18.68 49.4783 18.68ZM56.8522 8.78C57.4642 8.78 57.9682 8.882 58.3642 9.086C58.7602 9.278 59.0602 9.488 59.2642 9.716C59.4802 9.944 59.6122 10.1 59.6602 10.184H59.8042V8.96H62.5402V18.5H59.8042V17.276H59.6602C59.6122 17.36 59.4802 17.516 59.2642 17.744C59.0602 17.972 58.7602 18.188 58.3642 18.392C57.9682 18.584 57.4642 18.68 56.8522 18.68C56.1442 18.68 55.5262 18.542 54.9982 18.266C54.4822 17.978 54.0502 17.6 53.7022 17.132C53.3542 16.652 53.0902 16.118 52.9102 15.53C52.7422 14.942 52.6582 14.342 52.6582 13.73C52.6582 13.118 52.7422 12.518 52.9102 11.93C53.0902 11.342 53.3542 10.814 53.7022 10.346C54.0502 9.866 54.4822 9.488 54.9982 9.212C55.5262 8.924 56.1442 8.78 56.8522 8.78ZM57.6442 10.994C57.1522 10.994 56.7382 11.132 56.4022 11.408C56.0782 11.672 55.8322 12.014 55.6642 12.434C55.5082 12.854 55.4302 13.286 55.4302 13.73C55.4302 14.174 55.5082 14.606 55.6642 15.026C55.8322 15.446 56.0782 15.794 56.4022 16.07C56.7382 16.334 57.1522 16.466 57.6442 16.466C58.1362 16.466 58.5442 16.334 58.8682 16.07C59.2042 15.794 59.4502 15.446 59.6062 15.026C59.7742 14.606 59.8582 14.174 59.8582 13.73C59.8582 13.286 59.7742 12.854 59.6062 12.434C59.4502 12.014 59.2042 11.672 58.8682 11.408C58.5442 11.132 58.1362 10.994 57.6442 10.994ZM64.6846 18.5V8.96H67.4206V10.256H67.5106C67.7146 9.908 68.0206 9.578 68.4286 9.266C68.8366 8.942 69.3946 8.78 70.1026 8.78C70.8226 8.78 71.3986 8.948 71.8306 9.284C72.2746 9.62 72.5986 10.034 72.8026 10.526H72.8386C72.9946 10.25 73.1986 9.98 73.4506 9.716C73.7146 9.44 74.0386 9.218 74.4226 9.05C74.8186 8.87 75.2806 8.78 75.8086 8.78C76.4686 8.78 77.0146 8.93 77.4466 9.23C77.8786 9.53 78.1966 9.926 78.4006 10.418C78.6166 10.898 78.7246 11.414 78.7246 11.966V18.5H75.9886V12.65C75.9886 12.182 75.8686 11.798 75.6286 11.498C75.4006 11.186 75.0526 11.03 74.5846 11.03C74.2246 11.03 73.9306 11.12 73.7026 11.3C73.4866 11.48 73.3246 11.714 73.2166 12.002C73.1206 12.278 73.0726 12.566 73.0726 12.866V18.5H70.3366V12.65C70.3366 12.182 70.2166 11.798 69.9766 11.498C69.7486 11.186 69.4006 11.03 68.9326 11.03C68.5726 11.03 68.2786 11.12 68.0506 11.3C67.8346 11.48 67.6726 11.714 67.5646 12.002C67.4686 12.278 67.4206 12.566 67.4206 12.866V18.5H64.6846ZM81.0013 22.01V8.96H83.7373V10.184H83.8633C83.9233 10.1 84.0553 9.944 84.2593 9.716C84.4753 9.488 84.7813 9.278 85.1773 9.086C85.5733 8.882 86.0773 8.78 86.6893 8.78C87.3973 8.78 88.0093 8.924 88.5253 9.212C89.0533 9.488 89.4913 9.866 89.8393 10.346C90.1873 10.814 90.4453 11.342 90.6133 11.93C90.7933 12.518 90.8833 13.118 90.8833 13.73C90.8833 14.342 90.7933 14.942 90.6133 15.53C90.4453 16.118 90.1873 16.652 89.8393 17.132C89.4913 17.6 89.0533 17.978 88.5253 18.266C88.0093 18.542 87.3973 18.68 86.6893 18.68C86.0773 18.68 85.5733 18.584 85.1773 18.392C84.7813 18.188 84.4753 17.972 84.2593 17.744C84.0553 17.516 83.9233 17.36 83.8633 17.276H83.7373V22.01H81.0013ZM83.6833 13.73C83.6833 14.174 83.7613 14.606 83.9173 15.026C84.0853 15.446 84.3313 15.794 84.6553 16.07C84.9913 16.334 85.4053 16.466 85.8973 16.466C86.3893 16.466 86.7973 16.334 87.1213 16.07C87.4573 15.794 87.7033 15.446 87.8593 15.026C88.0273 14.606 88.1113 14.174 88.1113 13.73C88.1113 13.286 88.0273 12.854 87.8593 12.434C87.7033 12.014 87.4573 11.672 87.1213 11.408C86.7973 11.132 86.3893 10.994 85.8973 10.994C85.4053 10.994 84.9913 11.132 84.6553 11.408C84.3313 11.672 84.0853 12.014 83.9173 12.434C83.7613 12.854 83.6833 13.286 83.6833 13.73ZM94.9716 18.5V7.592H90.8856V5.18H101.83V7.592H97.7436V18.5H94.9716ZM105.807 8.78C106.419 8.78 106.923 8.882 107.319 9.086C107.715 9.278 108.015 9.488 108.219 9.716C108.435 9.944 108.567 10.1 108.615 10.184H108.759V8.96H111.495V18.5H108.759V17.276H108.615C108.567 17.36 108.435 17.516 108.219 17.744C108.015 17.972 107.715 18.188 107.319 18.392C106.923 18.584 106.419 18.68 105.807 18.68C105.099 18.68 104.481 18.542 103.953 18.266C103.437 17.978 103.005 17.6 102.657 17.132C102.309 16.652 102.045 16.118 101.865 15.53C101.697 14.942 101.613 14.342 101.613 13.73C101.613 13.118 101.697 12.518 101.865 11.93C102.045 11.342 102.309 10.814 102.657 10.346C103.005 9.866 103.437 9.488 103.953 9.212C104.481 8.924 105.099 8.78 105.807 8.78ZM106.599 10.994C106.107 10.994 105.693 11.132 105.357 11.408C105.033 11.672 104.787 12.014 104.619 12.434C104.463 12.854 104.385 13.286 104.385 13.73C104.385 14.174 104.463 14.606 104.619 15.026C104.787 15.446 105.033 15.794 105.357 16.07C105.693 16.334 106.107 16.466 106.599 16.466C107.091 16.466 107.499 16.334 107.823 16.07C108.159 15.794 108.405 15.446 108.561 15.026C108.729 14.606 108.813 14.174 108.813 13.73C108.813 13.286 108.729 12.854 108.561 12.434C108.405 12.014 108.159 11.672 107.823 11.408C107.499 11.132 107.091 10.994 106.599 10.994ZM118.588 22.316C117.7 22.316 116.968 22.208 116.392 21.992C115.828 21.776 115.378 21.5 115.042 21.164C114.706 20.84 114.46 20.516 114.304 20.192C114.148 19.868 114.046 19.592 113.998 19.364C113.962 19.148 113.944 19.04 113.944 19.04H116.608C116.608 19.04 116.626 19.094 116.662 19.202C116.71 19.322 116.8 19.454 116.932 19.598C117.064 19.754 117.256 19.886 117.508 19.994C117.772 20.114 118.12 20.174 118.552 20.174C119.296 20.174 119.842 19.964 120.19 19.544C120.55 19.124 120.73 18.572 120.73 17.888V16.88H120.604C120.484 17.072 120.304 17.282 120.064 17.51C119.824 17.738 119.518 17.93 119.146 18.086C118.774 18.242 118.324 18.32 117.796 18.32C117.088 18.32 116.47 18.188 115.942 17.924C115.414 17.648 114.97 17.282 114.61 16.826C114.262 16.37 113.998 15.86 113.818 15.296C113.65 14.732 113.566 14.15 113.566 13.55C113.566 12.962 113.65 12.386 113.818 11.822C113.998 11.246 114.262 10.73 114.61 10.274C114.97 9.818 115.414 9.458 115.942 9.194C116.47 8.918 117.088 8.78 117.796 8.78C118.324 8.78 118.774 8.864 119.146 9.032C119.518 9.188 119.824 9.38 120.064 9.608C120.316 9.824 120.496 10.034 120.604 10.238H120.73V8.96H123.466V17.888C123.466 18.68 123.292 19.412 122.944 20.084C122.596 20.756 122.062 21.296 121.342 21.704C120.622 22.112 119.704 22.316 118.588 22.316ZM118.552 16.16C119.056 16.16 119.47 16.034 119.794 15.782C120.13 15.53 120.382 15.206 120.55 14.81C120.718 14.402 120.802 13.982 120.802 13.55C120.802 13.106 120.718 12.686 120.55 12.29C120.382 11.894 120.13 11.57 119.794 11.318C119.47 11.066 119.056 10.94 118.552 10.94C118.06 10.94 117.646 11.066 117.31 11.318C116.986 11.57 116.74 11.894 116.572 12.29C116.404 12.686 116.32 13.106 116.32 13.55C116.32 13.982 116.404 14.402 116.572 14.81C116.74 15.206 116.986 15.53 117.31 15.782C117.646 16.034 118.06 16.16 118.552 16.16Z" fill="white"/>
<defs>
<clipPath id="clip0_766_248">
<rect width="16" height="16" fill="white" transform="translate(0 4)"/>
</clipPath>
</defs>
</svg>
